<svg width="81" height="81" viewBox="0 0 81 81" fill="none" xmlns="http://www.w3.org/2000/svg">
<circle cx="40.5" cy="40.5" r="40.5" fill="#233A66"/>
<path d="M54.6872 21.0752C56.1315 19.6417 58.4728 19.6415 59.917 21.0752C61.361 22.5088 61.361 24.8329 59.917 26.2666L45.5765 40.4999L59.917 54.7333C61.3609 56.1668 61.3607 58.491 59.917 59.9247C58.4727 61.3584 56.1297 61.3584 54.6854 59.9247L40.3466 45.6913L26.3131 59.6235C24.8688 61.0566 22.5274 61.0568 21.0833 59.6235C19.6389 58.1898 19.6389 55.8641 21.0833 54.4303L35.1168 40.4999L21.0833 26.5695C19.639 25.1359 19.6392 22.8119 21.0833 21.3781C22.5276 19.9444 24.8688 19.9444 26.3131 21.3781L40.3466 35.3085L54.6872 21.0752Z" fill="white"/>
</svg>
