<svg width="118" height="85" viewBox="0 0 118 85" fill="none" xmlns="http://www.w3.org/2000/svg">
<path d="M18.7197 18.7197H37.1757V24.4227H25.7775V29.9392H36.5341V35.6422H25.7775V45.3335H18.7197V18.7197Z" fill="white"/>
<path d="M38.6427 40.0778C38.6427 38.4129 39.083 37.1083 39.9637 36.164C40.8695 35.1949 42.0773 34.4991 43.587 34.0767C45.0966 33.6542 46.7573 33.4182 48.5689 33.3685L51.1354 33.2939V32.623C51.1354 31.6539 50.9341 30.9581 50.5315 30.5356C50.129 30.0883 49.4873 29.8647 48.6067 29.8647C47.7764 29.8647 47.1347 30.0386 46.6818 30.3865C46.2541 30.7096 45.9773 31.1941 45.8515 31.8402L39.775 31.3557C40.4543 27.3301 43.4737 25.3173 48.8331 25.3173C51.8525 25.3173 54.0667 25.9882 55.4758 27.3301C56.8848 28.6471 57.5894 30.6475 57.5894 33.3312V45.4826H51.3996V43.3952C50.5945 44.2401 49.7012 44.8862 48.7199 45.3335C47.7638 45.7559 46.6441 45.9671 45.3608 45.9671C43.3479 45.9671 41.725 45.4453 40.4921 44.4016C39.2592 43.3579 38.6427 41.9167 38.6427 40.0778ZM44.9834 39.6305C44.9834 40.873 45.7508 41.4942 47.2857 41.4942C48.4683 41.4942 49.3993 41.1712 50.0786 40.5251C50.7832 39.879 51.1354 39.0217 51.1354 37.9532V37.0586L48.7954 37.1704C47.4115 37.245 46.4302 37.4811 45.8515 37.8786C45.2728 38.2762 44.9834 38.8602 44.9834 39.6305Z" fill="white"/>
<path d="M60.2933 18.757H66.785V31.9521L72.9748 25.8018H80.561L73.7296 32.3248L81.2026 45.3708H73.9938L69.1251 36.3877L66.785 38.5869V45.3708H60.2933V18.757Z" fill="white"/>
<path d="M80.2884 35.8425C80.2884 32.4879 81.1817 29.8787 82.9681 28.015C84.7798 26.1513 87.2204 25.2194 90.2902 25.2194C93.3599 25.2194 95.7125 26.114 97.348 27.9031C99.0086 29.6675 99.839 32.0903 99.839 35.1716V37.0726H86.7801C86.9059 38.5636 87.233 39.6445 87.7614 40.3154C88.315 40.9615 89.1453 41.2846 90.2524 41.2846C91.2086 41.2846 91.9257 41.1106 92.4037 40.7627C92.907 40.39 93.2466 39.8682 93.4228 39.1972H99.688C99.2854 41.4088 98.3041 43.0986 96.7441 44.2665C95.2092 45.4096 93.0831 45.9811 90.3656 45.9811C87.1198 45.9811 84.6288 45.099 82.8926 43.3346C81.1565 41.5703 80.2884 39.073 80.2884 35.8425ZM93.5737 33.5315C93.4983 32.2891 93.2466 31.3696 92.8189 30.7733C92.3911 30.152 91.5608 29.8414 90.3279 29.8414C89.1956 29.8414 88.3653 30.1396 87.8369 30.736C87.3085 31.3324 86.9688 32.2642 86.8179 33.5315H93.5737Z" fill="white"/>
<path d="M36.5298 49.9712H40.5195L46.8266 59.8228V49.9712H51.103V66.88H47.1849L40.8062 56.9573V66.88H36.5298V49.9712Z" fill="white"/>
<path d="M53.9368 60.8175C53.9368 58.6861 54.5022 57.0284 55.633 55.8443C56.7797 54.6602 58.3247 54.0681 60.2678 54.0681C62.2108 54.0681 63.7 54.6365 64.7353 55.7732C65.7864 56.8942 66.312 58.4335 66.312 60.3912V61.599H58.0459C58.1256 62.5462 58.3326 63.233 58.6671 63.6593C59.0175 64.0698 59.5431 64.275 60.2439 64.275C60.8491 64.275 61.303 64.1645 61.6056 63.9434C61.9242 63.7066 62.1392 63.3751 62.2507 62.9488H66.2165C65.9616 64.3539 65.3405 65.4275 64.353 66.1695C63.3815 66.8958 62.0356 67.2589 60.3155 67.2589C58.261 67.2589 56.6842 66.6984 55.5852 65.5775C54.4863 64.4566 53.9368 62.8699 53.9368 60.8175ZM62.3462 59.3492C62.2984 58.5598 62.1392 57.9756 61.8684 57.5967C61.5977 57.202 61.0721 57.0047 60.2916 57.0047C59.5749 57.0047 59.0493 57.1941 58.7149 57.573C58.3804 57.952 58.1654 58.544 58.0698 59.3492H62.3462Z" fill="white"/>
<path d="M82.289 54.447H86.3982L82.9102 66.88H78.9444L77.0092 59.515L75.1219 66.88H71.0605L67.5486 54.447H71.8011L73.4496 62.0252L75.3608 54.5418H78.7532L80.7122 61.8358L82.289 54.447Z" fill="white"/>
<path d="M94.9224 63.2567C94.9224 62.9725 94.8268 62.7357 94.6357 62.5462C94.4445 62.3568 94.0941 62.2226 93.5845 62.1436L92.2227 61.9068C90.5822 61.6068 89.3877 61.1569 88.6392 60.557C87.8906 59.957 87.5163 59.0966 87.5163 57.9756C87.5163 56.7442 88.018 55.789 89.0214 55.1101C90.0248 54.4155 91.3945 54.0681 93.1306 54.0681C94.8825 54.0681 96.2204 54.3918 97.1442 55.0391C98.0679 55.6864 98.6413 56.6021 98.8643 57.7862L94.8507 58.1651C94.7392 57.7388 94.5481 57.4152 94.2773 57.1941C94.0225 56.9731 93.6323 56.8626 93.1067 56.8626C92.5492 56.8626 92.1511 56.9573 91.9121 57.1468C91.6732 57.3362 91.5538 57.5809 91.5538 57.8809C91.5538 58.1651 91.6573 58.394 91.8644 58.5677C92.0714 58.7256 92.4457 58.8598 92.9872 58.9703L94.4206 59.2308C95.5833 59.4518 96.4991 59.7281 97.1681 60.0596C97.837 60.3912 98.3148 60.8096 98.6015 61.3148C98.8882 61.82 99.0315 62.4594 99.0315 63.233C99.0315 64.5118 98.5537 65.5064 97.5981 66.2169C96.6584 66.9116 95.2489 67.2589 93.3695 67.2589C91.506 67.2589 90.0407 66.9116 88.9736 66.2169C87.9224 65.5222 87.3411 64.4408 87.2296 62.9725H91.3149C91.3945 63.4619 91.5936 63.8092 91.9121 64.0145C92.2466 64.2039 92.7085 64.2987 93.2978 64.2987C93.8871 64.2987 94.3012 64.2118 94.5401 64.0382C94.7949 63.8645 94.9224 63.604 94.9224 63.2567Z" fill="white"/>
<path d="M7.21582 18.5752L14.2959 18.5752L14.2959 30.1484L-3.22559e-06 30.1484L-1.20206e-06 18.5752L0.0078113 18.5752C0.153323 16.1974 1.76739 11.7003 7.21582 11.7002L7.21582 18.5752Z" fill="#ED6E83"/>
<path d="M18.8154 4.54981L23.5 4.54981L23.5 12.208L14.04 12.208L14.04 4.5498L14.0469 4.5498C14.1431 2.97629 15.2097 2.04512e-07 18.8154 8.34957e-07L18.8154 4.54981Z" fill="#ED6E83"/>
<path d="M110.664 66.1724L103.583 66.1724L103.584 54.5991L117.879 54.5991L117.879 66.1724L117.872 66.1724C117.726 68.5499 116.113 73.0483 110.664 73.0483L110.664 66.1724Z" fill="#ED6E83"/>
<path d="M99.064 80.1982L94.3794 80.1982L94.3794 72.5391L103.839 72.5391L103.839 80.1982L103.833 80.1982C103.736 81.7718 102.67 84.748 99.064 84.748L99.064 80.1982Z" fill="#ED6E83"/>
</svg>
