<svg width="145" height="87" viewBox="0 0 145 87" fill="none" xmlns="http://www.w3.org/2000/svg">
<path d="M0 0H32.99V10.194H12.6158V20.0548H31.8431V30.2488H12.6158V47.5719H0V0Z" fill="#233A66"/>
<path d="M35.6122 38.1774C35.6122 35.2014 36.3992 32.8694 37.9734 31.1816C39.5925 29.4492 41.7514 28.2055 44.45 27.4504C47.1485 26.6953 50.117 26.2733 53.3552 26.1845L57.9428 26.0513V24.852C57.9428 23.1197 57.583 21.8759 56.8634 21.1208C56.1438 20.3213 54.9969 19.9215 53.4227 19.9215C51.9385 19.9215 50.7916 20.2325 49.982 20.8543C49.2174 21.4318 48.7227 22.2979 48.4978 23.4528L37.6361 22.5866C38.8504 15.3909 44.2476 11.793 53.8275 11.793C59.2246 11.793 63.1825 12.9923 65.7012 15.3909C68.2198 17.7451 69.4792 21.3207 69.4792 26.1179V47.8384H58.415V44.1072C56.9758 45.6175 55.3792 46.7723 53.6251 47.5719C51.916 48.327 49.9146 48.7045 47.6208 48.7045C44.0227 48.7045 41.1217 47.7717 38.9179 45.9062C36.7141 44.0406 35.6122 41.4644 35.6122 38.1774ZM46.9461 37.3779C46.9461 39.5988 48.3179 40.7093 51.0615 40.7093C53.1753 40.7093 54.8394 40.1318 56.0538 38.9769C57.3131 37.8221 57.9428 36.2896 57.9428 34.3797V32.7806L53.76 32.9805C51.2863 33.1137 49.5323 33.5357 48.4978 34.2464C47.4634 34.9571 46.9461 36.0009 46.9461 37.3779Z" fill="#233A66"/>
<path d="M74.3125 0.0666316H85.9163V23.6527L96.9805 12.6592H110.541L98.3297 24.319L111.688 47.6385H98.802L90.0991 31.5813L85.9163 35.5123V47.6385H74.3125V0.0666316Z" fill="#233A66"/>
<path d="M110.054 30.6069C110.054 24.6104 111.65 19.9465 114.844 16.6152C118.082 13.2838 122.444 11.6181 127.932 11.6181C133.419 11.6181 137.624 13.2172 140.547 16.4153C143.516 19.569 145 23.8998 145 29.4076V32.8056H121.657C121.882 35.4707 122.467 37.4029 123.411 38.6022C124.401 39.757 125.885 40.3345 127.864 40.3345C129.573 40.3345 130.855 40.0236 131.71 39.4017C132.609 38.7354 133.216 37.8026 133.531 36.6034H144.73C144.011 40.5566 142.256 43.577 139.468 45.6647C136.724 47.7079 132.924 48.7295 128.066 48.7295C122.265 48.7295 117.812 47.1527 114.709 43.999C111.605 40.8453 110.054 36.3813 110.054 30.6069ZM133.801 26.476C133.666 24.2551 133.216 22.6116 132.452 21.5456C131.687 20.4351 130.203 19.8799 127.999 19.8799C125.975 19.8799 124.491 20.4129 123.546 21.479C122.602 22.545 121.995 24.2107 121.725 26.476H133.801Z" fill="#233A66"/>
<path d="M33.229 55.8613H40.3606L51.6344 73.471V55.8613H59.2784V86.0857H52.275L40.873 68.349V86.0857H33.229V55.8613Z" fill="#ED6E83"/>
<path d="M64.3439 75.2489C64.3439 71.4391 65.3545 68.476 67.3759 66.3594C69.4256 64.2429 72.1872 63.1846 75.6604 63.1846C79.1337 63.1846 81.7956 64.2005 83.6461 66.2324C85.5251 68.2361 86.4645 70.9876 86.4645 74.487V76.6459H71.689C71.8313 78.3391 72.2014 79.5667 72.7993 80.3287C73.4256 81.0624 74.3651 81.4293 75.6177 81.4293C76.6996 81.4293 77.5109 81.2317 78.0518 80.8366C78.6212 80.4133 79.0056 79.8207 79.2049 79.0587H86.2937C85.8382 81.5704 84.7279 83.4894 82.9628 84.8157C81.2262 86.1139 78.8205 86.763 75.7458 86.763C72.0733 86.763 69.2548 85.7611 67.2904 83.7575C65.3261 81.7538 64.3439 78.9176 64.3439 75.2489ZM79.3757 72.6244C79.2903 71.2134 79.0056 70.1692 78.5216 69.4919C78.0376 68.7864 77.0981 68.4336 75.7031 68.4336C74.422 68.4336 73.4825 68.7723 72.8847 69.4496C72.2868 70.1269 71.9025 71.1852 71.7317 72.6244H79.3757Z" fill="#ED6E83"/>
<path d="M115.023 63.8619H122.368L116.134 86.0857H109.045L105.586 72.9207L102.212 86.0857H94.9524L88.6749 63.8619H96.2762L99.2228 77.4078L102.639 64.0312H108.703L112.205 77.0692L115.023 63.8619Z" fill="#ED6E83"/>
<path d="M137.605 79.609C137.605 79.101 137.434 78.6777 137.093 78.3391C136.751 78.0004 136.125 77.7606 135.214 77.6195L132.78 77.1962C129.847 76.66 127.712 75.8557 126.374 74.7833C125.036 73.7109 124.367 72.1729 124.367 70.1692C124.367 67.968 125.264 66.2606 127.057 65.0472C128.851 63.8054 131.299 63.1846 134.402 63.1846C137.534 63.1846 139.925 63.7631 141.577 64.9202C143.228 66.0772 144.253 67.714 144.651 69.8306L137.477 70.5079C137.278 69.7459 136.936 69.1674 136.452 68.7723C135.997 68.3772 135.299 68.1797 134.36 68.1797C133.363 68.1797 132.652 68.349 132.225 68.6876C131.797 69.0263 131.584 69.4637 131.584 69.9999C131.584 70.5079 131.769 70.9171 132.139 71.2275C132.509 71.5097 133.178 71.7496 134.146 71.9471L136.708 72.4128C138.787 72.8078 140.424 73.3017 141.619 73.8943C142.815 74.487 143.669 75.2348 144.182 76.1379C144.694 77.0409 144.95 78.1839 144.95 79.5667C144.95 81.8526 144.096 83.6305 142.388 84.9004C140.708 86.1421 138.189 86.763 134.829 86.763C131.499 86.763 128.879 86.1421 126.972 84.9004C125.093 83.6587 124.054 81.7256 123.855 79.1011H131.157C131.299 79.9759 131.655 80.5967 132.225 80.9636C132.822 81.3023 133.648 81.4716 134.701 81.4716C135.755 81.4716 136.495 81.3164 136.922 81.0059C137.377 80.6955 137.605 80.2299 137.605 79.609Z" fill="#ED6E83"/>
</svg>
