<svg width="118" height="85" viewBox="0 0 118 85" fill="none" xmlns="http://www.w3.org/2000/svg">
<path d="M18.7388 18.7388H37.2137V24.4475H25.8038V29.9698H36.5714V35.6785H25.8038V45.3797H18.7388V18.7388Z" fill="#233A66"/>
<path d="M38.6821 40.1187C38.6821 38.4521 39.1229 37.1462 40.0045 36.2009C40.9112 35.2308 42.1202 34.5343 43.6314 34.1114C45.1427 33.6886 46.805 33.4522 48.6185 33.4025L51.1876 33.3279V32.6562C51.1876 31.6861 50.9861 30.9896 50.5831 30.5668C50.1801 30.119 49.5378 29.8951 48.6563 29.8951C47.8251 29.8951 47.1828 30.0693 46.7295 30.4175C46.3013 30.7409 46.0242 31.2259 45.8983 31.8727L39.8155 31.3876C40.4956 27.3579 43.5181 25.343 48.883 25.343C51.9055 25.343 54.1219 26.0147 55.5324 27.3579C56.9429 28.6763 57.6482 30.6787 57.6482 33.3652V45.529H51.4521V43.4395C50.6461 44.2852 49.7519 44.932 48.7696 45.3797C47.8125 45.8026 46.6917 46.014 45.4071 46.014C43.3921 46.014 41.7676 45.4917 40.5334 44.4469C39.2992 43.4022 38.6821 41.9594 38.6821 40.1187ZM45.0293 39.671C45.0293 40.9147 45.7975 41.5366 47.334 41.5366C48.5178 41.5366 49.4497 41.2132 50.1297 40.5664C50.835 39.9197 51.1876 39.0615 51.1876 37.9919V37.0964L48.8452 37.2083C47.4599 37.283 46.4776 37.5193 45.8983 37.9173C45.319 38.3153 45.0293 38.8998 45.0293 39.671Z" fill="#233A66"/>
<path d="M60.3549 18.7761H66.8532V31.9846L73.0493 25.8281H80.6433L73.8049 32.3577L81.2855 45.417H74.0694L69.1956 36.4248L66.8532 38.6262V45.417H60.3549V18.7761Z" fill="#233A66"/>
<path d="M80.3704 35.8791C80.3704 32.521 81.2646 29.9091 83.0529 28.0435C84.8664 26.1779 87.3095 25.2451 90.3824 25.2451C93.4552 25.2451 95.8102 26.1406 97.4474 27.9316C99.1098 29.6977 99.941 32.123 99.941 35.2075V37.1104H86.8688C86.9947 38.6029 87.3221 39.6849 87.8511 40.3566C88.4052 41.0033 89.2364 41.3267 90.3446 41.3267C91.3017 41.3267 92.0196 41.1526 92.4981 40.8043C93.0019 40.4312 93.3419 39.9088 93.5182 39.2372H99.7898C99.3868 41.4511 98.4045 43.1426 96.8429 44.3117C95.3065 45.4559 93.1782 46.028 90.4579 46.028C87.2088 46.028 84.7152 45.145 82.9773 43.3789C81.2394 41.6127 80.3704 39.1128 80.3704 35.8791ZM93.6693 33.5657C93.5938 32.322 93.3419 31.4016 92.9137 30.8046C92.4855 30.1828 91.6543 29.8718 90.4202 29.8718C89.2867 29.8718 88.4556 30.1703 87.9266 30.7673C87.3977 31.3643 87.0577 32.2971 86.9065 33.5657H93.6693Z" fill="#233A66"/>
<path d="M36.5674 50.022H40.5612L46.8747 59.8837V50.022H51.1555V66.9481H47.2334L40.8481 57.0152V66.9481H36.5674V50.022Z" fill="#ED6E83"/>
<path d="M53.9922 60.8793C53.9922 58.7458 54.5582 57.0864 55.6901 55.9011C56.838 54.7158 58.3845 54.1231 60.3296 54.1231C62.2747 54.1231 63.7654 54.6921 64.8017 55.8299C65.854 56.952 66.3801 58.4929 66.3801 60.4526V61.6616H58.1055C58.1853 62.6099 58.3925 63.2973 58.7273 63.724C59.0781 64.1349 59.6042 64.3404 60.3057 64.3404C60.9115 64.3404 61.3659 64.2298 61.6689 64.0085C61.9877 63.7715 62.203 63.4396 62.3146 63.0129H66.2844C66.0293 64.4194 65.4075 65.4941 64.4191 66.2369C63.4465 66.9639 62.0993 67.3274 60.3774 67.3274C58.3208 67.3274 56.7424 66.7663 55.6423 65.6442C54.5422 64.5221 53.9922 62.9338 53.9922 60.8793ZM62.4102 59.4096C62.3624 58.6194 62.203 58.0346 61.9319 57.6553C61.6609 57.2602 61.1348 57.0627 60.3535 57.0627C59.6361 57.0627 59.11 57.2523 58.7752 57.6316C58.4403 58.0109 58.2251 58.6035 58.1295 59.4096H62.4102Z" fill="#ED6E83"/>
<path d="M82.3734 54.5024H86.4868L82.9952 66.9481H79.0253L77.0882 59.5755L75.1989 66.9481H71.1334L67.6179 54.5024H71.8748L73.5249 62.0883L75.4381 54.5972H78.834L80.795 61.8987L82.3734 54.5024Z" fill="#ED6E83"/>
<path d="M95.0197 63.321C95.0197 63.0366 94.924 62.7995 94.7327 62.6099C94.5414 62.4202 94.1906 62.2859 93.6804 62.2069L92.3173 61.9698C90.6751 61.6695 89.4794 61.2191 88.73 60.6186C87.9807 60.018 87.606 59.1567 87.606 58.0346C87.606 56.8019 88.1082 55.8457 89.1127 55.1662C90.1171 54.4708 91.4882 54.1231 93.226 54.1231C94.9798 54.1231 96.319 54.4471 97.2437 55.0951C98.1684 55.743 98.7424 56.6597 98.9656 57.845L94.9479 58.2242C94.8363 57.7975 94.645 57.4736 94.374 57.2523C94.1189 57.031 93.7282 56.9204 93.2021 56.9204C92.6441 56.9204 92.2455 57.0152 92.0064 57.2049C91.7672 57.3945 91.6477 57.6395 91.6477 57.9398C91.6477 58.2242 91.7513 58.4534 91.9585 58.6273C92.1658 58.7853 92.5405 58.9196 93.0825 59.0303L94.5174 59.291C95.6813 59.5123 96.598 59.7888 97.2677 60.1207C97.9373 60.4526 98.4156 60.8714 98.7025 61.3771C98.9895 61.8829 99.133 62.5229 99.133 63.2973C99.133 64.5775 98.6547 65.5731 97.6981 66.2843C96.7575 66.9797 95.3465 67.3274 93.4652 67.3274C91.5998 67.3274 90.133 66.9797 89.0648 66.2843C88.0126 65.5889 87.4307 64.5063 87.3191 63.0366H91.4085C91.4882 63.5265 91.6875 63.8742 92.0064 64.0796C92.3412 64.2693 92.8035 64.3641 93.3934 64.3641C93.9833 64.3641 94.3979 64.2772 94.637 64.1033C94.8921 63.9295 95.0197 63.6687 95.0197 63.321Z" fill="#ED6E83"/>
<path d="M7.22363 18.5947L14.3105 18.5947L14.3105 30.1797L-3.22901e-06 30.1797L-1.20343e-06 18.5947L0.0078113 18.5947C0.153167 16.2147 1.76891 11.7119 7.22363 11.7119L7.22363 18.5947Z" fill="#ED6E83"/>
<path d="M18.8345 4.55469L23.5239 4.55469L23.5239 12.2207L14.0542 12.2207L14.0542 4.55469L14.061 4.55469C14.1573 2.97962 15.2249 2.04689e-07 18.8345 8.35809e-07L18.8345 4.55469Z" fill="#ED6E83"/>
<path d="M110.776 66.2402L103.689 66.2402L103.689 54.6553L118 54.6553L118 66.2402L117.992 66.2402C117.847 68.6202 116.231 73.123 110.776 73.123L110.776 66.2402Z" fill="#203B67"/>
<path d="M99.1655 80.2798L94.4761 80.2798L94.4761 72.6138L103.946 72.6138L103.946 80.2798L103.939 80.2798C103.843 81.8549 102.775 84.8345 99.1655 84.8345L99.1655 80.2798Z" fill="#203B67"/>
</svg>
