<svg width="81" height="81" viewBox="0 0 81 81" fill="none" xmlns="http://www.w3.org/2000/svg">
<circle cx="40.5" cy="40.5" r="40.5" fill="#233A66"/>
<path d="M35.0322 20.59C36.2995 19.3227 38.4656 20.2335 38.4463 22.0256L38.0479 58.6769C38.0288 60.401 35.9828 61.2948 34.7051 60.1369L22.6572 49.2179C22.4695 49.0478 22.32 48.8444 22.21 48.6222H16C14.8954 48.6222 14 47.7268 14 46.6222V35.6222C14.0001 34.5178 14.8955 33.6222 16 33.6222H22.1826C22.2809 33.4068 22.4153 33.207 22.5859 33.0363L35.0322 20.59Z" fill="white"/>
<path d="M63.7577 29.5857C64.5387 28.8048 65.8048 28.8047 66.5858 29.5857C67.3666 30.3667 67.3666 31.6328 66.5858 32.4138L58.8309 40.1677L66.5858 47.9216C67.3666 48.7026 67.3665 49.9687 66.5858 50.7498C65.8047 51.5308 64.5377 51.5308 63.7567 50.7498L56.0028 42.9959L48.4139 50.5857C47.6329 51.3664 46.3667 51.3665 45.5858 50.5857C44.8047 49.8047 44.8047 48.5377 45.5858 47.7566L53.1747 40.1677L45.5858 32.5789C44.8048 31.7979 44.8049 30.5318 45.5858 29.7508C46.3668 28.9697 47.6329 28.9697 48.4139 29.7508L56.0028 37.3396L63.7577 29.5857Z" fill="white"/>
</svg>
