<svg width="393" height="852" viewBox="0 0 393 852" fill="none" xmlns="http://www.w3.org/2000/svg">
<g clip-path="url(#clip0_412_262)">
<path d="M70.0752 145.278H138.829V257.664H0L1.96502e-05 145.278H0.0674024C1.47639 122.19 17.1556 78.5041 70.0752 78.5039V145.278Z" fill="#B74558"/>
<path d="M144.666 74.7246H98.9531V0L191.259 8.06962e-06V74.7246H191.214C190.277 90.0761 179.851 119.121 144.666 119.121V74.7246Z" fill="#B74558"/>
<path d="M272.075 432.278H340.829V544.664H202V432.278H202.067C203.476 409.19 219.156 365.504 272.075 365.504V432.278Z" fill="#B74558"/>
<path d="M346.666 361.725H300.953V287H393.259V361.725H393.214C392.277 377.076 381.851 406.121 346.666 406.121V361.725Z" fill="#B74558"/>
<path d="M323.184 112.386H254.43V0L393.259 3.64105e-05V112.386H393.191C391.782 135.474 376.103 179.16 323.184 179.16V112.386Z" fill="#B74558"/>
<path d="M248.593 182.939H294.306V257.664H202V182.939H202.045C202.982 167.588 213.408 138.543 248.593 138.543V182.939Z" fill="#B74558"/>
<path d="M121.184 399.386H52.4297V287H191.259V399.386H191.191C189.782 422.474 174.103 466.16 121.184 466.16V399.386Z" fill="#B74558"/>
<path d="M46.5928 469.939H92.3057L92.3056 544.664H0L1.30653e-05 469.939H0.0449349C0.982182 454.588 11.4076 425.543 46.5928 425.543V469.939Z" fill="#B74558"/>
<path d="M272.075 719.278H340.829V831.664H202V719.278H202.067C203.476 696.19 219.156 652.504 272.075 652.504V719.278Z" fill="#B74558"/>
<path d="M346.666 648.725H300.953V574H393.259V648.725H393.214C392.277 664.076 381.851 693.121 346.666 693.121V648.725Z" fill="#B74558"/>
<path d="M121.184 686.386H52.4297V574H191.259V686.386H191.191C189.782 709.474 174.103 753.16 121.184 753.16V686.386Z" fill="#B74558"/>
<path d="M46.5928 756.939H92.3057L92.3056 831.664H0L1.30653e-05 756.939H0.0449349C0.982182 741.588 11.4076 712.543 46.5928 712.543V756.939Z" fill="#B74558"/>
<path d="M393 829H0V858H393V829Z" fill="#ED6E83"/>
</g>
<defs>
<clipPath id="clip0_412_262">
<rect width="393" height="852" fill="white"/>
</clipPath>
</defs>
</svg>
