<svg width="393" height="852" viewBox="0 0 393 852" fill="none" xmlns="http://www.w3.org/2000/svg">
<path d="M70.0752 145.278L138.829 145.278L138.829 257.664L-3.13254e-05 257.664L-1.16752e-05 145.278L0.0673711 145.278C1.47636 122.19 17.1556 78.5041 70.0752 78.5039L70.0752 145.278Z" fill="#F8ECD1"/>
<path d="M144.666 74.7246L98.9531 74.7246L98.9531 -8.06962e-06L191.259 0L191.259 74.7246L191.214 74.7246C190.277 90.0761 179.851 119.121 144.666 119.121L144.666 74.7246Z" fill="#F8ECD1"/>
<path d="M272.075 432.278L340.829 432.278L340.829 544.664L202 544.664L202 432.278L202.067 432.278C203.476 409.19 219.156 365.504 272.075 365.504L272.075 432.278Z" fill="#F8ECD1"/>
<path d="M346.666 361.725L300.953 361.725L300.953 287L393.259 287L393.259 361.725L393.214 361.725C392.277 377.076 381.851 406.121 346.666 406.121L346.666 361.725Z" fill="#F8ECD1"/>
<path d="M323.184 112.386L254.43 112.386L254.43 -3.64105e-05L393.259 0L393.259 112.386L393.191 112.386C391.782 135.474 376.103 179.16 323.184 179.16L323.184 112.386Z" fill="#F8ECD1"/>
<path d="M248.593 182.939L294.306 182.939L294.306 257.664L202 257.664L202 182.939L202.045 182.939C202.982 167.588 213.408 138.543 248.593 138.543L248.593 182.939Z" fill="#F8ECD1"/>
<path d="M121.184 399.386L52.4297 399.386L52.4297 287L191.259 287L191.259 399.386L191.191 399.386C189.782 422.474 174.103 466.16 121.184 466.16L121.184 399.386Z" fill="#F8ECD1"/>
<path d="M46.5928 469.939L92.3057 469.939L92.3056 544.664L-2.08278e-05 544.664L-7.76253e-06 469.939L0.0449141 469.939C0.982161 454.588 11.4076 425.543 46.5928 425.543L46.5928 469.939Z" fill="#F8ECD1"/>
<path d="M272.075 719.278L340.829 719.278L340.829 831.664L202 831.664L202 719.278L202.067 719.278C203.476 696.19 219.156 652.504 272.075 652.504L272.075 719.278Z" fill="#F8ECD1"/>
<path d="M346.666 648.725L300.953 648.725L300.953 574L393.259 574L393.259 648.725L393.214 648.725C392.277 664.076 381.851 693.121 346.666 693.121L346.666 648.725Z" fill="#F8ECD1"/>
<path d="M121.184 686.386L52.4297 686.386L52.4297 574L191.259 574L191.259 686.386L191.191 686.386C189.782 709.474 174.103 753.16 121.184 753.16L121.184 686.386Z" fill="#F8ECD1"/>
<path d="M46.5928 756.939L92.3057 756.939L92.3056 831.664L-2.08278e-05 831.664L-7.76253e-06 756.939L0.0449141 756.939C0.982161 741.588 11.4076 712.543 46.5928 712.543L46.5928 756.939Z" fill="#F8ECD1"/>
<rect y="829" width="393" height="29" fill="#FFF4DC"/>
</svg>
