<svg width="81" height="81" viewBox="0 0 81 81" fill="none" xmlns="http://www.w3.org/2000/svg">
<circle cx="40.5" cy="40.5" r="40.5" fill="#FF6E81"/>
<path d="M35.0322 20.5898C36.2995 19.3225 38.4656 20.2333 38.4463 22.0254L38.0479 58.6768C38.0288 60.4009 35.9828 61.2947 34.7051 60.1367L22.6572 49.2178C22.4695 49.0477 22.32 48.8443 22.21 48.6221H16C14.8954 48.6221 14 47.7266 14 46.6221V35.6221C14.0001 34.5176 14.8955 33.6221 16 33.6221H22.1826C22.2809 33.4066 22.4153 33.2068 22.5859 33.0361L35.0322 20.5898Z" fill="white"/>
<path d="M63.7578 29.5859C64.5389 28.805 65.8049 28.8049 66.5859 29.5859C67.3668 30.3669 67.3668 31.6331 66.5859 32.4141L58.8311 40.168L66.5859 47.9219C67.3667 48.7028 67.3666 49.969 66.5859 50.75C65.8049 51.531 64.5379 51.531 63.7568 50.75L56.0029 42.9961L48.4141 50.5859C47.633 51.3666 46.3669 51.3667 45.5859 50.5859C44.8049 49.8049 44.8049 48.5379 45.5859 47.7568L53.1748 40.168L45.5859 32.5791C44.8049 31.7981 44.805 30.532 45.5859 29.751C46.367 28.9699 47.633 28.9699 48.4141 29.751L56.0029 37.3398L63.7578 29.5859Z" fill="white"/>
</svg>
