<svg width="81" height="81" viewBox="0 0 81 81" fill="none" xmlns="http://www.w3.org/2000/svg">
<circle cx="40.5" cy="40.5" r="40.5" fill="#FF6E81"/>
<path d="M36.0322 20.5898C37.2995 19.3225 39.4656 20.2333 39.4463 22.0254L39.0479 58.6768C39.0288 60.4009 36.9828 61.2947 35.7051 60.1367L23.6572 49.2178C23.4695 49.0477 23.32 48.8443 23.21 48.6221H17C15.8954 48.6221 15 47.7266 15 46.6221V35.6221C15.0001 34.5176 15.8955 33.6221 17 33.6221H23.1826C23.2809 33.4066 23.4153 33.2068 23.5859 33.0361L36.0322 20.5898Z" fill="white"/>
<path d="M50.0005 28.6221C60 33.1221 59.5003 45.6221 51.0261 51.6221" stroke="white" stroke-width="4" stroke-linecap="round"/>
<path d="M46 34.6221C51.3747 36.7742 51.1061 42.7525 46.5512 45.6221" stroke="white" stroke-width="4" stroke-linecap="round"/>
<path d="M54.4419 23.6221C69.2224 30.0786 68.4837 48.0134 55.9578 56.6221" stroke="white" stroke-width="4" stroke-linecap="round"/>
</svg>
