<svg width="81" height="81" viewBox="0 0 81 81" fill="none" xmlns="http://www.w3.org/2000/svg">
<circle cx="40.5" cy="40.5" r="40.5" fill="#233A66"/>
<path d="M36.0322 20.59C37.2995 19.3227 39.4656 20.2335 39.4463 22.0256L39.0479 58.6769C39.0288 60.401 36.9828 61.2948 35.7051 60.1369L23.6572 49.2179C23.4695 49.0478 23.32 48.8444 23.21 48.6222H17C15.8954 48.6222 15 47.7268 15 46.6222V35.6222C15.0001 34.5178 15.8955 33.6222 17 33.6222H23.1826C23.2809 33.4068 23.4153 33.207 23.5859 33.0363L36.0322 20.59Z" fill="white"/>
<path d="M50.0005 28.6221C60 33.1221 59.5003 45.6221 51.0261 51.6221" stroke="white" stroke-width="4" stroke-linecap="round"/>
<path d="M46 34.6221C51.3747 36.7742 51.1061 42.7525 46.5512 45.6221" stroke="white" stroke-width="4" stroke-linecap="round"/>
<path d="M54.4419 23.6221C69.2224 30.0786 68.4837 48.0134 55.9578 56.6221" stroke="white" stroke-width="4" stroke-linecap="round"/>
</svg>
